<svg id="Capa_1" enable-background="new 0 0 512 512" height="512" viewBox="0 0 512 512" width="512" xmlns="http://www.w3.org/2000/svg"><g><path d="m321.317 151.704c-1.418-1.418-3.798-.908-4.555.949-1.229 3.014-3.064 5.838-5.511 8.284-12.877 12.877-36.211 8.923-42.666-11.862-1.179-3.796-1.212-7.893-.066-11.699 2.712-9.012 8.562-14.875 15.378-17.642 1.842-.748 2.318-3.132.913-4.537l-17.551-17.55c-4.972-4.972-13.034-4.972-18.006 0l-17.551 17.55c-1.406 1.406-3.79.929-4.537-.913-2.767-6.816-8.63-12.666-17.644-15.378-3.807-1.145-7.904-1.112-11.7.067-20.781 6.456-24.734 29.788-11.858 42.664 2.446 2.446 5.27 4.282 8.284 5.511 1.857.757 2.367 3.137.949 4.555l-17.548 17.548c-4.972 4.972-4.972 13.034 0 18.007l17.55 17.55c1.406 1.406 3.79.929 4.538-.913 2.767-6.815 8.629-12.665 17.642-15.378 3.806-1.146 7.903-1.113 11.699.066 20.785 6.455 24.739 29.789 11.862 42.666-2.446 2.446-5.27 4.282-8.284 5.511-1.857.757-2.367 3.137-.949 4.555l17.549 17.548c4.972 4.972 13.034 4.972 18.006 0l71.606-71.606c4.972-4.972 4.972-13.034 0-18.007z"/><path d="m460.07 88.122-85.193-85.193c-1.876-1.875-4.419-2.929-7.071-2.929h-308.805c-5.522 0-10 4.477-10 10v492c0 5.523 4.478 10 10 10h393.998c5.522 0 10-4.477 10-10v-406.807c0-2.652-1.054-5.195-2.929-7.071zm-391.069 403.878v-472h294.31v69.688c0 5.523 4.477 10 10 10h69.688v392.312z"/><path d="m317.582 300.056c-5.522 0-10 4.477-10 10v80c0 5.523 4.478 10 10 10s10-4.477 10-10v-80c0-5.523-4.478-10-10-10z"/><path d="m273.249 300.056c-5.522 0-10 4.477-10 10v54.991c0 3.833-1.088 8.78-9.575 13.054-2.612 1.315-5.448 1.955-8.67 1.955-.011 0-.022 0-.034 0-3.531-.005-6.599-.87-9.375-2.644-6.585-4.208-7.935-7.963-7.935-12.307v-55.049c0-5.523-4.478-10-10-10s-10 4.477-10 10v55.049c0 12.072 5.775 21.883 17.166 29.161 5.999 3.832 12.767 5.78 20.116 5.79h.061c6.331 0 12.274-1.377 17.667-4.093 17.009-8.566 20.579-21.541 20.579-30.917v-54.991c0-5.522-4.478-9.999-10-9.999z"/><path d="m181.184 377.224c5.088-7.828 8.058-17.155 8.058-27.168 0-27.57-22.43-50-50-50s-50 22.43-50 50 22.43 50 50 50c10.339 0 19.956-3.155 27.938-8.552l5.3 5.3c1.953 1.953 4.512 2.929 7.071 2.929s5.118-.976 7.071-2.929c3.905-3.905 3.905-10.237 0-14.143zm-41.943 2.832c-16.542 0-30-13.458-30-30s13.458-30 30-30 30 13.458 30 30c0 4.456-.984 8.685-2.735 12.491l-5.478-5.478c-3.906-3.905-10.236-3.905-14.143 0-3.905 3.905-3.905 10.237 0 14.143l5.702 5.702c-4.022 2.006-8.553 3.142-13.346 3.142z"/><path d="m412.999 380.056h-34.918l42.053-64.541c2.004-3.074 2.162-6.998.414-10.224s-5.123-5.235-8.792-5.235h-50.485c-5.522 0-10 4.477-10 10s4.478 10 10 10h32.034l-42.053 64.541c-2.004 3.074-2.162 6.998-.414 10.224s5.123 5.235 8.792 5.235h53.369c5.522 0 10-4.477 10-10s-4.478-10-10-10z"/></g></svg>